<?xml version="1.0" standalone="no"?>
<!DOCTYPE svg PUBLIC "-//W3C//DTD SVG 20010904//EN"
 "http://www.w3.org/TR/2001/REC-SVG-20010904/DTD/svg10.dtd">
<svg version="1.0" xmlns="http://www.w3.org/2000/svg"
 width="800.000000pt" height="800.000000pt" viewBox="0 0 800.000000 800.000000"
 preserveAspectRatio="xMidYMid meet">
<metadata>
Created by potrace 1.11, written by Peter Selinger 2001-2013
</metadata>
<g transform="translate(0.000000,800.000000) scale(0.100000,-0.100000)"
fill="#000000" stroke="none">
<path d="M4786 7404 c-100 -24 -184 -72 -261 -149 -139 -138 -189 -303 -155
-509 23 -139 132 -293 264 -370 36 -21 66 -43 66 -48 0 -5 -22 -86 -49 -181
-270 -944 -331 -1160 -331 -1178 0 -19 -4 -19 -62 -12 -116 15 -286 8 -383
-16 -89 -21 -272 -103 -310 -138 -11 -10 -36 -30 -56 -45 -20 -15 -59 -51 -88
-80 -390 -397 -349 -1056 89 -1401 43 -34 108 -77 144 -95 36 -19 66 -35 66
-37 0 -2 -14 -39 -31 -82 -43 -111 -170 -455 -174 -473 -2 -8 -34 -94 -70
-190 -88 -232 -185 -496 -185 -505 0 -4 -6 -21 -14 -38 -8 -18 -30 -75 -50
-127 -28 -76 -39 -94 -53 -92 -10 1 -62 5 -115 9 -159 10 -300 -36 -426 -137
l-59 -48 -135 107 c-75 58 -249 196 -388 306 -139 110 -321 254 -404 320
l-152 120 30 70 c34 82 46 208 27 295 -28 129 -139 278 -250 334 -164 83 -363
74 -510 -25 -190 -127 -265 -357 -190 -579 30 -87 41 -104 120 -181 179 -176
425 -197 634 -54 l63 44 134 -105 c73 -58 191 -151 262 -207 71 -56 166 -131
211 -167 46 -36 170 -135 278 -220 l194 -154 -34 -71 c-72 -152 -80 -325 -24
-488 63 -183 238 -342 431 -392 39 -11 102 -17 160 -17 114 0 198 20 295 70
119 62 253 219 299 350 59 165 36 374 -56 531 -45 74 -141 170 -210 210 l-57
32 20 52 c12 29 30 79 41 112 11 33 29 80 39 105 17 40 246 659 253 685 2 6 8
21 13 35 6 14 31 81 56 150 110 301 137 373 141 377 2 2 23 -4 47 -13 69 -25
304 -31 410 -9 145 29 313 107 395 182 17 15 48 44 70 63 51 47 113 121 158
192 l36 57 37 -16 c21 -8 80 -35 130 -59 51 -24 95 -44 98 -44 3 0 90 -38 193
-83 103 -46 214 -94 247 -107 33 -13 63 -29 67 -34 4 -6 8 -8 8 -3 0 4 10 1
23 -7 12 -8 128 -60 257 -116 129 -56 236 -103 237 -104 1 -1 -5 -28 -12 -61
-13 -54 -14 -223 -3 -265 39 -140 88 -230 167 -308 70 -70 163 -125 256 -155
90 -28 268 -30 359 -3 222 66 384 240 431 463 25 117 18 210 -29 358 -48 154
-212 308 -391 367 -57 19 -91 23 -180 22 -134 -1 -213 -20 -314 -77 -73 -42
-191 -153 -213 -203 -6 -13 -17 -24 -23 -24 -7 0 -117 46 -246 103 -225 99
-268 118 -279 122 -5 2 -66 29 -145 65 -166 76 -436 194 -470 206 -31 11 -119
52 -154 71 -2 1 6 38 18 82 69 254 33 509 -104 747 -83 144 -303 331 -449 380
l-45 15 14 47 c8 26 84 295 170 597 86 303 167 586 180 630 13 44 26 89 29
100 5 18 13 20 78 17 130 -7 228 22 342 100 229 156 306 450 184 704 -39 83
-156 205 -235 247 -114 61 -273 81 -397 51z"/>
<path d="M3937 6194 c-1 -1 -36 -5 -77 -8 -61 -6 -143 -20 -285 -51 -174 -37
-496 -178 -667 -292 -252 -169 -455 -370 -615 -608 -33 -49 -70 -108 -82 -130
-12 -22 -26 -47 -31 -55 -24 -37 -101 -214 -134 -309 -52 -150 -84 -281 -102
-416 -3 -22 -9 -67 -13 -100 -13 -95 -5 -409 13 -525 23 -145 68 -331 96 -395
11 -27 22 -58 25 -70 11 -47 123 -269 189 -375 81 -130 230 -313 342 -419 82
-78 264 -225 269 -219 1 2 33 84 70 183 37 99 78 207 91 241 13 33 46 121 74
195 l50 133 -48 51 c-27 27 -61 64 -76 80 -48 54 -143 198 -186 285 -44 88
-105 260 -116 326 -3 22 -7 41 -9 44 -10 17 -20 164 -19 285 5 530 314 1013
799 1245 130 63 300 114 414 126 25 2 47 6 49 9 4 3 197 671 219 753 l6 24
-123 -4 c-67 -2 -122 -4 -123 -4z"/>
<path d="M5172 5858 c-6 -24 -55 -196 -108 -382 l-96 -339 63 -56 c140 -126
239 -251 318 -402 111 -211 161 -408 165 -642 2 -89 2 -89 31 -102 17 -6 55
-23 85 -38 59 -27 202 -92 453 -207 87 -39 160 -70 162 -68 7 7 19 82 31 193
13 122 6 476 -10 504 -2 3 -7 31 -10 61 -16 137 -98 401 -173 559 -157 328
-376 601 -649 808 -106 80 -218 153 -235 153 -9 0 -20 -18 -27 -42z"/>
<path d="M5049 2968 c-227 -200 -518 -329 -799 -353 -83 -7 -121 -13 -125 -17
-1 -2 -36 -95 -78 -208 -42 -113 -104 -278 -138 -368 -34 -89 -60 -164 -57
-167 10 -10 122 -18 258 -18 163 0 245 8 415 40 405 76 810 290 1106 583 76
75 179 192 179 202 0 3 -24 16 -52 28 -29 12 -80 35 -113 50 -120 55 -281 129
-340 155 -33 15 -97 45 -141 65 l-82 38 -33 -30z"/>
</g>
</svg>
